<svg id="Warstwa_1" data-name="Warstwa 1" xmlns="http://www.w3.org/2000/svg" viewBox="0 0 512 512"><defs><style>.cls-1{fill:#222;}.cls-2{fill:#f28c0c;}</style></defs><title>PG</title><g id="background"><rect class="cls-1" width="512" height="512" rx="50.5" ry="50.5"/></g><g id="text"><g id="Letters"><path id="P" class="cls-2" d="M-529.14,474q0-4.7,5.25-6.16a126.73,126.73,0,0,1,13.22-2.72,169.65,169.65,0,0,0,17.38-3.8,43.81,43.81,0,0,0,17.38-9.41q18.47-15.93,18.47-53.23,0-23.9-16.11-36.57t-46.35-12.67a129.4,129.4,0,0,0-56.67,12.67q-9.78,4.71-17.56,8.69t-14.3,4q-6.52,0-6.52-4,0-6.15,11.95-20.28,11.95-13,37.84-24.26A135.6,135.6,0,0,1-510.67,315q54-.36,84,25.35,26.07,22.46,26.07,58.12t-25.71,63.73Q-452,490.3-490.57,490.29T-529.14,474Zm-24.62,97.41q0,21.37-41.64,21.36-9.06,0-10.68-9.23t-1.63-25.89q0-35.12,14.12-86.91,23.53-85.45,50.33-100.67a15.18,15.18,0,0,1,8-2.17q4.35,0,4.35,14.12a191.69,191.69,0,0,1-1.45,25q-2.9,21.73-10.32,56.13t-7.42,40.56Z" transform="translate(645.73 -250.32)"/><path id="G" class="cls-2" d="M-322,416.79q-14.49,35.49-14.48,66.08T-324,528q12.49,14.49,40.38,14.48,16.65,0,29.33-11.95,4-29.69,6.52-39.47,6.15-23.9,18.83-23.9,10.13,0,19.19,13.94t8.69,23.72q0,16.29-13,60.47,25.34-19.19,58.3-56.85,4.7-5.43,8-5.43,5.07,0,5.07,11.95,0,23.18-23.18,49.43t-61.56,41.82a121.79,121.79,0,0,0-4.71,13q-1.82,6.15-4.71,14.85a75.75,75.75,0,0,1-10.14,19,68,68,0,0,1-18.11,17.56q-23.18,15.93-53,15.93t-50-13.22q-20.1-13.22-20.1-36.39,0-11.23,10.86-18.47T-349.17,606a360.24,360.24,0,0,1,39.11-9.23q21.73-4,43.45-9.05a118.7,118.7,0,0,0,4.35-15.57Q-276.39,583-297,583q-43.1,0-67.71-17.74-28.61-20.64-28.61-64.46,0-57.21,29-108.63A101,101,0,0,1-378.5,371q-5.43-11-5.43-16.84,0-10.13,7.24-9.78,4.7,0,10.86,5.79t10,9.78a65.67,65.67,0,0,0,8.15,7.24,156.84,156.84,0,0,1,44.18-38.75,108.34,108.34,0,0,1,55.76-14.85q30.42,0,47.44,11.23t17,39.11q0,27.89-21.54,46.35t-59.93,18.47Q-291.24,428.74-322,416.79Zm-.36,241.89q24.62,0,43.09-36.93-19.92,5.07-33.68,8t-22.27,5.07q-8.51,2.17-12.31,4.34a6.77,6.77,0,0,0-3.8,6.16q0,6.87,9.23,10A69.87,69.87,0,0,0-322.37,658.67Zm12.31-266.51q19.91,8.69,48.16,8.69,17.38,0,27.88-9.41t10.5-20.46q0-11-7.06-16.29t-18.65-5.25Q-284,349.43-310.06,392.16Z" transform="translate(645.73 -250.32)"/></g></g></svg>